<svg width="456" height="456" viewBox="0 0 456 456" fill="none" xmlns="http://www.w3.org/2000/svg">
<g clip-path="url(#clip0)">
<path d="M96.6289 39.9953V3.99953C96.6289 1.78885 94.8401 0 92.6294 0C90.4226 0 88.6299 1.78885 88.6299 3.99953V191.739H96.6289V39.9953Z" fill="#99154E"/>
<path d="M237.265 101.968L227.614 82.666L217.966 101.965C217.099 103.695 215.451 104.902 213.537 105.206L192.7 108.515L207.991 123.47C209.405 124.852 210.045 126.844 209.706 128.793L206.104 149.389L224.817 139.542C226.567 138.62 228.656 138.62 230.406 139.542L249.115 149.389L245.518 128.793C245.178 126.844 245.818 124.852 247.232 123.47L262.523 108.515L241.682 105.206C239.776 104.898 238.132 103.695 237.265 101.968Z" fill="#99154E"/>
<path d="M366.597 3.99953C366.597 1.78885 364.808 0 362.597 0C360.39 0 358.598 1.78885 358.598 3.99953V191.739H366.597V3.99953Z" fill="#99154E"/>
<path d="M205.69 354.056L93.395 442.572C90.1337 445.143 89.5712 449.872 92.1452 453.134C94.7152 456.395 99.4451 456.958 102.706 454.388L217.865 363.64L205.69 354.056Z" fill="#99154E"/>
<path d="M346.599 39.7568H108.627V191.739H346.599V39.7568ZM279.451 108.749L257.887 129.844L263.043 159.356C263.433 161.606 262.512 163.887 260.664 165.234C258.817 166.578 256.364 166.757 254.341 165.695L227.613 151.63L200.894 165.695C198.871 166.761 196.414 166.582 194.566 165.234C192.719 163.887 191.797 161.606 192.188 159.352L197.343 129.844L175.78 108.749C174.159 107.163 173.573 104.796 174.26 102.636C174.948 100.476 176.795 98.8904 179.037 98.535L208.612 93.8364L222.251 66.5583C223.266 64.5273 225.344 63.2423 227.613 63.2423C229.886 63.2423 231.964 64.5273 232.98 66.5583L246.619 93.8364L276.193 98.535C278.435 98.8904 280.283 100.476 280.97 102.636C281.658 104.796 281.072 107.163 279.451 108.749Z" fill="#99154E"/>
<path d="M335.042 251.732L237.308 328.863L249.478 338.546L359.418 251.732H335.042Z" fill="#99154E"/>
<path d="M67.0467 239.733H388.184C398.125 239.733 406.182 231.671 406.182 221.735C406.182 211.795 398.125 203.737 388.184 203.737H67.0467C57.1065 203.737 49.0488 211.795 49.0488 221.735C49.0488 231.671 57.1065 239.733 67.0467 239.733V239.733Z" fill="#99154E"/>
<path d="M95.582 251.732L352.52 454.208C354.86 456.161 358.156 456.485 360.832 455.024C363.507 453.563 365.023 450.618 364.648 447.591C364.421 445.557 363.41 443.69 361.832 442.385L120.188 251.732H95.582Z" fill="#99154E"/>
</g>
<defs>
<clipPath id="clip0">
<rect width="456" height="456" fill="white"/>
</clipPath>
</defs>
</svg>
