<svg width="512" height="512" viewBox="0 0 512 512" fill="none" xmlns="http://www.w3.org/2000/svg">
<g clip-path="url(#clip0)">
<path d="M136.15 195.526C134.386 200.957 135.857 206.918 139.947 210.903L187.09 256.859L175.961 321.747C174.996 327.374 177.311 333.061 181.93 336.417C184.543 338.316 187.637 339.282 190.748 339.282C193.135 339.282 195.531 338.713 197.725 337.559L256.002 306.923L314.277 337.559C316.47 338.712 318.867 339.282 321.256 339.282H321.307C329.577 339.266 336.278 332.556 336.278 324.282C336.278 323.131 336.147 322.009 335.901 320.931L324.911 256.859L372.057 210.903C376.145 206.918 377.618 200.957 375.852 195.526C374.088 190.096 369.395 186.138 363.745 185.318L298.592 175.852L269.455 116.812C266.928 111.692 261.713 108.451 256.004 108.451C250.295 108.451 245.08 111.693 242.553 116.812L213.414 175.852L148.263 185.318C142.609 186.139 137.916 190.097 136.15 195.526V195.526Z" fill="#99154E"/>
<path d="M501.64 224.566C500.119 224.071 486.333 219.734 470.589 219.734C460.734 219.734 452.091 221.465 444.814 224.867C444.669 222.351 444.488 219.841 444.244 217.338C456.596 213.844 473.428 206.807 482.996 193.146C498.443 171.089 491.182 137.12 490.305 133.319C488.577 125.843 481.479 120.877 473.867 121.809C470.181 122.26 438.859 126.634 422.527 146.069C421.408 143.997 420.259 141.938 419.06 139.905C418.98 139.768 418.894 139.636 418.814 139.501C428.529 131.113 440.798 117.628 443.693 101.214C448.369 74.69 427.433 46.976 425.031 43.903C420.304 37.858 411.779 36.356 405.269 40.419C402.121 42.387 375.56 59.605 368.984 84.141C363.105 79.753 356.978 75.682 350.605 71.995C343.433 67.847 334.259 70.294 330.109 77.465C325.961 84.635 328.41 93.812 335.58 97.96C349.051 105.756 361.112 115.4 371.532 126.453C398.994 155.159 415.865 194.081 415.865 236.944C415.865 325.235 344.291 396.808 256.001 396.808C167.711 396.808 96.1378 325.235 96.1378 236.945C96.1378 194.114 112.983 155.219 140.408 126.519C150.843 115.438 162.925 105.771 176.425 97.961C183.597 93.813 186.046 84.636 181.898 77.465C177.75 70.294 168.574 67.847 161.404 71.992C155.029 75.68 148.9 79.752 143.019 84.139C136.447 59.603 109.882 42.385 106.732 40.418C100.224 36.353 91.6968 37.856 86.9718 43.902C84.5698 46.974 63.6318 74.689 68.3078 101.216C71.2038 117.629 83.4718 131.112 93.1888 139.5C93.1088 139.635 93.0228 139.766 92.9428 139.901C91.7438 141.935 90.5948 143.995 89.4758 146.069C73.1398 126.633 41.8198 122.26 38.1338 121.808C30.5188 120.876 23.4248 125.842 21.6978 133.319C20.8188 137.12 13.5608 171.089 29.0068 193.144C38.5728 206.806 55.4068 213.843 67.7588 217.337C67.5148 219.84 67.3328 222.351 67.1868 224.866C59.9138 221.465 51.2688 219.733 41.4138 219.733C25.6718 219.733 11.8828 224.07 10.3628 224.564C3.06576 226.938 -1.26424 234.437 0.329757 241.944C1.13976 245.759 8.91776 279.609 32.2418 293.078C40.1678 297.653 49.9898 299.973 61.4348 299.973C67.2588 299.973 72.8118 299.379 77.5778 298.607C78.4158 300.985 79.2948 303.344 80.2238 305.678C80.2158 305.678 80.2078 305.677 80.2008 305.677C54.8138 305.677 31.2278 326.997 28.6208 329.429C23.0098 334.664 22.2558 343.29 26.8728 349.42C29.2188 352.536 50.5738 379.933 77.4018 382.279C78.6748 382.39 79.9818 382.446 81.2888 382.446H81.2928C96.5408 382.446 111.133 374.756 120.926 368.085C122.692 369.889 124.49 371.658 126.326 373.391C103.252 384.092 90.8788 413.308 89.4858 416.757C86.6128 423.874 89.5758 432.011 96.3528 435.615C98.5268 436.771 118.191 446.915 138.644 446.917H138.648C144.933 446.917 150.783 445.948 156.035 444.038C171.705 438.332 182.857 423.892 189.43 412.865C194.819 414.898 200.325 416.691 205.934 418.232C197.204 427.108 189.207 438.408 182.192 451.962C178.383 459.318 181.26 468.37 188.618 472.178C195.975 475.984 205.026 473.11 208.835 465.751C222.249 439.835 239.442 424.972 256.005 424.972C272.57 424.972 289.763 439.835 303.177 465.752C305.845 470.904 311.083 473.859 316.511 473.859C318.833 473.859 321.191 473.318 323.394 472.177C330.751 468.368 333.628 459.318 329.82 451.96C322.804 438.406 314.808 427.105 306.078 418.23C311.687 416.689 317.191 414.896 322.58 412.863C329.152 423.891 340.307 438.332 355.98 444.038C361.228 445.946 367.078 446.915 373.365 446.915C393.818 446.915 413.482 436.769 415.658 435.612C422.433 432.008 425.396 423.871 422.523 416.754C421.13 413.306 408.755 384.09 385.683 373.388C387.519 371.657 389.318 369.887 391.083 368.084C400.876 374.754 415.47 382.444 430.718 382.444C432.025 382.444 433.331 382.388 434.607 382.277C461.433 379.93 482.789 352.534 485.136 349.418C489.751 343.288 488.997 334.662 483.386 329.427C480.781 326.995 457.195 305.675 431.808 305.675C431.8 305.675 431.792 305.676 431.783 305.676C432.715 303.342 433.594 300.983 434.431 298.605C439.197 299.377 444.751 299.971 450.574 299.971C462.017 299.971 471.84 297.651 479.771 293.074C503.089 279.607 510.869 245.758 511.677 241.942C513.265 234.438 508.936 226.94 501.64 224.566V224.566Z" fill="#99154E"/>
</g>
<defs>
<clipPath id="clip0">
<rect width="512" height="512" fill="white"/>
</clipPath>
</defs>
</svg>
