<svg width="512" height="512" viewBox="0 0 512 512" fill="none" xmlns="http://www.w3.org/2000/svg">
<path d="M512 169C512 135.59 512 112.217 512 110C512 85.187 491.813 65 467 65H461V120C461 128.284 454.284 135 446 135C437.716 135 431 128.284 431 120C431 103.161 431 56.768 431 40C431 31.716 424.284 25 416 25C407.716 25 401 31.716 401 40V65H301V120C301 128.284 294.284 135 286 135C277.716 135 271 128.284 271 120C271 103.161 271 56.768 271 40C271 31.716 264.284 25 256 25C247.716 25 241 31.716 241 40V65H141V120C141 128.284 134.284 135 126 135C117.716 135 111 128.284 111 120C111 103.161 111 56.768 111 40C111 31.716 104.284 25 96 25C87.716 25 81 31.716 81 40V65H45C20.187 65 0 85.187 0 110V169H512Z" fill="#99154E"/>
<path d="M0 199V442C0 466.813 20.187 487 45 487H467C491.813 487 512 466.813 512 442C512 435.575 512 295.188 512 199C502.665 199 5.164 199 0 199ZM144 407H112C103.716 407 97 400.284 97 392C97 383.716 103.716 377 112 377H144C152.284 377 159 383.716 159 392C159 400.284 152.284 407 144 407ZM144 343H112C103.716 343 97 336.284 97 328C97 319.716 103.716 313 112 313H144C152.284 313 159 319.716 159 328C159 336.284 152.284 343 144 343ZM144 279H112C103.716 279 97 272.284 97 264C97 255.716 103.716 249 112 249H144C152.284 249 159 255.716 159 264C159 272.284 152.284 279 144 279ZM272 407H240C231.716 407 225 400.284 225 392C225 383.716 231.716 377 240 377H272C280.284 377 287 383.716 287 392C287 400.284 280.284 407 272 407ZM272 343H240C231.716 343 225 336.284 225 328C225 319.716 231.716 313 240 313H272C280.284 313 287 319.716 287 328C287 336.284 280.284 343 272 343ZM272 279H240C231.716 279 225 272.284 225 264C225 255.716 231.716 249 240 249H272C280.284 249 287 255.716 287 264C287 272.284 280.284 279 272 279ZM400 407H368C359.716 407 353 400.284 353 392C353 383.716 359.716 377 368 377H400C408.284 377 415 383.716 415 392C415 400.284 408.284 407 400 407ZM400 343H368C359.716 343 353 336.284 353 328C353 319.716 359.716 313 368 313H400C408.284 313 415 319.716 415 328C415 336.284 408.284 343 400 343ZM400 279H368C359.716 279 353 272.284 353 264C353 255.716 359.716 249 368 249H400C408.284 249 415 255.716 415 264C415 272.284 408.284 279 400 279Z" fill="#99154E"/>
</svg>
