<svg width="512" height="512" viewBox="0 0 512 512" fill="none" xmlns="http://www.w3.org/2000/svg">
<g clip-path="url(#clip0)">
<path d="M378.684 498.778L143.485 286.5C140.374 283.69 135.575 283.936 132.768 287.048C129.959 290.159 130.205 294.958 133.316 297.766L368.514 510.045C369.965 511.355 371.783 512.001 373.595 512.001C375.668 512.001 377.733 511.157 379.231 509.497C382.041 506.385 381.795 501.586 378.684 498.778Z" fill="#99154E"/>
<path d="M379.231 287.047C376.423 283.936 371.625 283.69 368.514 286.499L133.317 498.779C130.206 501.588 129.961 506.385 132.769 509.497C134.267 511.157 136.331 512.001 138.404 512.001C140.216 512.001 142.034 511.355 143.485 510.045L378.682 297.765C381.794 294.956 382.039 290.158 379.231 287.047Z" fill="#99154E"/>
<path d="M464.611 236.025C461.425 233.538 457.849 231.761 454.084 230.729V20.276C454.083 9.096 444.987 0 433.806 0C422.625 0 413.529 9.096 413.529 20.276V25.891H140.9C136.709 25.891 133.312 29.287 133.312 33.479C133.312 37.671 136.709 41.067 140.9 41.067H413.529V146.971H99.191V33.479V20.276C99.191 9.096 90.095 0 78.914 0C67.734 0 58.637 9.096 58.637 20.276V232.124C54.703 233.151 50.96 234.977 47.634 237.571C40.231 243.344 35.963 252.025 35.928 261.361L35.865 269.473C35.85 271.506 36.65 273.459 38.088 274.897C50.828 287.637 91.224 294.687 134.216 298.576L244.675 398.272L133.317 498.778C130.206 501.586 129.96 506.384 132.769 509.496C134.266 511.156 136.331 512 138.404 512C140.216 512 142.034 511.354 143.485 510.044L256 408.493L368.515 510.044C369.966 511.354 371.784 512 373.596 512C375.669 512 377.733 511.156 379.231 509.496C382.039 506.385 381.794 501.587 378.683 498.778L267.326 398.272L378.683 297.766C378.775 297.683 378.856 297.593 378.942 297.507C421.443 293.269 461.165 285.935 473.851 273.25C475.26 271.841 476.059 269.934 476.074 267.941L476.136 259.802C476.172 250.435 471.971 241.77 464.611 236.025ZM428.707 33.479V20.276C428.707 17.512 431.042 15.177 433.807 15.177C436.572 15.177 438.907 17.512 438.907 20.276V230.576C438.842 230.592 438.777 230.603 438.712 230.62C435.603 231.411 432.259 232.175 428.708 232.913V154.56H428.707V33.479V33.479ZM73.813 20.276C73.814 17.512 76.15 15.177 78.914 15.177C81.678 15.177 84.014 17.512 84.014 20.276V33.479V154.56V234.366C80.389 233.646 76.981 232.897 73.813 232.12V20.276V20.276ZM256 388.05L158.971 300.476C197.446 302.953 234.175 303.293 251.292 303.293C253.035 303.293 254.575 303.289 255.892 303.284C270.272 303.228 311.128 302.775 353.945 299.648L256 388.05ZM460.925 264.264C454.959 268.246 438.122 275.23 390.971 280.887C353.78 285.35 305.788 287.914 255.836 288.108C205.88 288.305 157.912 286.109 120.755 281.935C73.873 276.668 57.059 269.869 51.07 265.938L51.104 261.448C51.122 256.771 53.259 252.43 56.966 249.539C60.648 246.668 65.336 245.659 69.828 246.769C85.61 250.671 106.695 253.885 132.497 256.318C136.666 256.706 140.371 253.648 140.764 249.475C141.158 245.303 138.094 241.601 133.921 241.208C121.076 239.996 109.479 238.594 99.189 237.013V162.146H413.529V235.692C355.522 245.104 259.198 248.726 173.357 244.083C169.175 243.89 165.596 247.066 165.369 251.25C165.142 255.435 168.352 259.011 172.536 259.238C258.598 263.892 382.443 260.6 442.452 245.327C446.96 244.18 451.632 245.15 455.27 247.989C458.901 250.823 460.974 255.107 460.956 259.714L460.925 264.264Z" fill="#99154E"/>
<path d="M136.978 68.8442H125.16C122.89 68.8442 121.354 70.1132 121.354 71.5152V114.981C121.354 116.383 122.89 117.652 125.16 117.652H136.978C145.792 117.652 152.669 113.513 152.669 102.362V84.1342C152.669 72.9832 145.791 68.8442 136.978 68.8442ZM143.988 102.362C143.988 107.57 141.384 110.04 136.978 110.04H130.034V76.4552H136.978C141.384 76.4552 143.988 78.9272 143.988 84.1342V102.362Z" fill="#99154E"/>
<path d="M164.421 68.8442C162.217 68.8442 160.081 69.6452 160.081 71.5152V114.916C160.081 116.719 162.218 117.654 164.421 117.654C166.558 117.654 168.761 116.719 168.761 114.916V71.5152C168.761 69.6462 166.558 68.8442 164.421 68.8442Z" fill="#99154E"/>
<path d="M208.624 112.377L199.876 96.1522C204.884 94.6172 208.624 90.4772 208.624 82.7982C208.624 72.1822 201.546 68.8442 192.799 68.8442H179.578C177.909 68.8442 176.773 70.1132 176.773 71.5152V114.915C176.773 116.718 178.977 117.653 181.113 117.653C183.317 117.653 185.453 116.718 185.453 114.915V97.4872H191.061L200.542 115.916C201.21 117.252 202.345 117.986 203.547 117.986C206.084 117.986 208.956 115.65 208.956 113.446C208.958 113.179 208.891 112.711 208.624 112.377ZM192.799 90.6772H185.455V76.4552H192.799C197.139 76.4552 199.944 78.3252 199.944 83.6002C199.944 88.8752 197.139 90.6772 192.799 90.6772Z" fill="#99154E"/>
<path d="M242.409 110.042H223.513V96.6212H233.662C235.532 96.6212 236.4 94.8182 236.4 93.2822C236.4 91.4782 235.398 89.8102 233.662 89.8102H223.513V76.4562H242.409C244.145 76.4562 245.147 74.6542 245.147 72.5842C245.147 70.7812 244.279 68.8462 242.409 68.8462H218.639C216.702 68.8462 214.833 69.7812 214.833 71.5832V114.917C214.833 116.72 216.703 117.655 218.639 117.655H242.409C244.279 117.655 245.147 115.718 245.147 113.917C245.147 111.845 244.146 110.042 242.409 110.042Z" fill="#99154E"/>
<path d="M276.129 100.559C273.859 100.559 271.989 101.227 271.855 103.297C271.656 106.102 271.121 110.442 265.045 110.442C260.438 110.442 257.901 107.97 257.901 102.763V84.1342C257.901 78.9252 260.438 76.4552 264.911 76.4552C271.254 76.4552 271.721 80.9972 271.855 83.0672C271.922 85.0692 273.726 85.8042 276.195 85.8042C279.133 85.8042 280.535 85.0032 280.535 81.5302C280.535 73.7852 273.924 68.8452 264.643 68.8452C256.23 68.8452 249.219 72.9842 249.219 84.1352V102.764C249.219 113.915 256.164 118.054 264.576 118.054C273.924 118.054 280.535 112.913 280.535 104.834C280.537 101.427 279.134 100.559 276.129 100.559Z" fill="#99154E"/>
<path d="M314.188 68.8442H285.944C284.074 68.8442 283.206 70.8462 283.206 72.7162C283.206 74.8532 284.208 76.6562 285.944 76.6562H295.759V114.915C295.759 116.718 297.896 117.653 300.099 117.653C302.236 117.653 304.439 116.718 304.439 114.915V76.6562H314.187C315.923 76.6562 316.925 74.7862 316.925 72.7162C316.926 70.8472 316.058 68.8442 314.188 68.8442Z" fill="#99154E"/>
<path d="M335.957 68.8442C327.143 68.8442 320.332 72.9832 320.332 84.1342V102.763C320.332 113.915 327.143 118.054 335.957 118.053C344.77 118.053 351.647 113.914 351.647 102.763V84.1342C351.647 72.9832 344.77 68.8442 335.957 68.8442ZM342.967 102.763C342.967 108.038 340.297 110.442 335.957 110.442C331.55 110.442 329.012 108.038 329.012 102.763V84.1342C329.012 78.8592 331.55 76.4552 335.957 76.4552C340.296 76.4552 342.967 78.8592 342.967 84.1342V102.763Z" fill="#99154E"/>
<path d="M390.91 112.377L382.162 96.1522C387.17 94.6172 390.91 90.4772 390.91 82.7982C390.91 72.1822 383.832 68.8442 375.085 68.8442H361.864C360.195 68.8442 359.059 70.1132 359.059 71.5152V114.915C359.059 116.718 361.263 117.653 363.399 117.653C365.603 117.653 367.739 116.718 367.739 114.915V97.4872H373.347L382.828 115.916C383.496 117.252 384.631 117.986 385.833 117.986C388.37 117.986 391.242 115.65 391.242 113.446C391.244 113.179 391.177 112.711 390.91 112.377ZM375.085 90.6772H367.741V76.4552H375.085C379.425 76.4552 382.23 78.3252 382.23 83.6002C382.23 88.8752 379.425 90.6772 375.085 90.6772Z" fill="#99154E"/>
</g>
<defs>
<clipPath id="clip0">
<rect width="512.001" height="512.001" fill="white"/>
</clipPath>
</defs>
</svg>
