<svg width="75" height="75" viewBox="0 0 75 75" fill="none" xmlns="http://www.w3.org/2000/svg">
<path d="M70.8601 1.32542e-07H4.13647C1.85165 0.00114454 -0.000572072 1.85451 1.32542e-07 4.1399V70.8635C0.00114454 73.1483 1.85451 75.0006 4.1399 75H70.8601C73.1461 75.0006 74.9994 73.1478 75 70.8618C75 70.8612 75 70.8607 75 70.8601V4.13647C74.9989 1.85165 73.1455 -0.000572072 70.8601 1.32542e-07Z" fill="#99154E"/>
<path d="M51.7822 75.0004V45.9965H61.5601L63.0249 34.6439H51.7822V27.4135C51.7822 24.1342 52.6926 21.8998 57.395 21.8998H63.3545V11.7735C62.3177 11.6356 58.7603 11.3271 54.6209 11.3271C45.9784 11.3271 40.0635 16.6006 40.0635 26.2892V34.6439H30.3223V45.9965H40.0635V75.0004H51.7822Z" fill="black" fill-opacity="0.95"/>
</svg>
