<svg width="512" height="512" viewBox="0 0 512 512" fill="none" xmlns="http://www.w3.org/2000/svg">
<g clip-path="url(#clip0)">
<path d="M256 277.333C267.782 277.333 277.333 267.782 277.333 256C277.333 244.218 267.782 234.667 256 234.667C244.218 234.667 234.667 244.218 234.667 256C234.667 267.782 244.218 277.333 256 277.333Z" fill="#99154E"/>
<path d="M292.188 444.708C291.407 443.927 290.657 443.104 289.948 442.239C271.708 419.968 273.313 387.833 293.677 367.489C303.667 357.499 316.937 351.718 331.052 351.208C336.792 351.01 341.333 346.291 341.333 340.552V330.667C341.333 325.866 342.192 321.275 343.414 316.819C324.118 344.46 292.187 362.667 256 362.667C197.187 362.667 149.333 314.813 149.333 256C149.333 197.187 197.188 149.333 256 149.333C314.812 149.333 362.667 197.188 362.667 256C362.667 269.918 359.806 283.139 354.935 295.341C363.793 285.377 376.25 278.642 390.333 277.51C393.073 277.291 395.625 276.02 397.448 273.958C417.74 251.125 456.927 251.125 477.219 273.958C479.042 276.021 481.594 277.291 484.334 277.51C488.147 277.812 492.167 278.718 496.99 280.343C500.115 281.406 503.594 280.947 506.344 279.093C509.104 277.249 510.844 274.228 511.052 270.916L511.417 266.333C511.719 262.917 512 259.5 512 256C512 114.844 397.156 0 256 0C114.844 0 0 114.844 0 256C0 397.156 114.844 512 256 512C279.208 512 303.104 508.458 327.031 501.479C330.656 500.416 333.458 497.521 334.385 493.864C335.312 490.197 334.229 486.312 331.541 483.656L292.188 444.708ZM127.563 138.667C124.844 138.667 122.115 137.625 120.032 135.552C115.865 131.396 115.844 124.646 120.011 120.469C156.292 84.052 204.594 64 256 64C261.896 64 266.667 68.771 266.667 74.667C266.667 80.563 261.896 85.334 256 85.334C210.302 85.334 167.375 103.157 135.115 135.532C133.031 137.625 130.302 138.667 127.563 138.667Z" fill="#99154E"/>
<path d="M480 298.667C475.844 298.667 471.865 299.469 468.208 300.917C464.51 287.344 452.062 277.334 437.333 277.334C422.604 277.334 410.156 287.344 406.458 300.917C402.802 299.469 398.823 298.667 394.666 298.667C377.02 298.667 362.666 313.021 362.666 330.667V388.365L357.426 382.594C344.447 369.594 321.749 369.604 308.749 382.584C296.186 395.147 295.197 414.98 307.207 429.553L365.082 486.761C383.592 509.386 410.405 512.001 428.957 512.001C474.75 512 512 474.75 512 428.958V330.666C512 313.021 497.646 298.667 480 298.667Z" fill="#99154E"/>
</g>
<defs>
<clipPath id="clip0">
<rect width="512" height="512" fill="white"/>
</clipPath>
</defs>
</svg>
