<svg width="75" height="75" fill="none" xmlns="http://www.w3.org/2000/svg"><path d="M60.79 8.15 41.243 22.351l32.753 23.796A37.467 37.467 0 0 0 75 37.518c0-11.884-5.558-22.493-14.21-29.369Z" fill="#99154E"/><path d="M56.98 5.486A37.273 37.273 0 0 0 37.5.018a37.281 37.281 0 0 0-20.736 6.27l7.47 22.99L56.98 5.485Z" fill="#FFC93C"/><path d="M13.058 9.101C5.068 15.984 0 26.17 0 37.518c0 3.487.48 6.864 1.375 10.07h24.189L13.058 9.1ZM2.903 51.982c5.478 13.056 18.14 22.379 33.012 23l7.474-23H2.903ZM40.565 74.892c14.744-1.198 27.101-10.961 32.08-24.294L53.078 36.382l-12.513 38.51Z" fill="#99154E"/></svg>