<svg width="75" height="75" viewBox="0 0 75 75" fill="none" xmlns="http://www.w3.org/2000/svg">
<path d="M60.7904 8.14923L41.2428 22.3515L73.996 46.1483C74.6514 43.3764 75 40.4873 75 37.518C75 25.6339 69.4421 15.0246 60.7904 8.14923V8.14923Z" fill="#99154E"/>
<path d="M56.9801 5.48571C51.2991 2.01798 44.6288 0.0178833 37.5 0.0178833C29.8386 0.0178833 22.7077 2.32911 16.7644 6.28844L24.2345 29.2771L56.9801 5.48571Z" fill="#FFC93C"/>
<path d="M13.0578 9.10138C5.06763 15.9837 0 26.1697 0 37.5179C0 41.0049 0.480176 44.3816 1.37476 47.5871H25.5636L13.0578 9.10138Z" fill="#99154E"/>
<path d="M2.90283 51.9818C8.38149 65.0376 21.0427 74.3606 35.9153 74.9821L43.3885 51.9818H2.90283Z" fill="#99154E"/>
<path d="M40.5652 74.8919C55.3085 73.6935 67.6664 63.9306 72.6447 50.5982L53.0777 36.3819L40.5652 74.8919Z" fill="#99154E"/>
</svg>
