<svg width="278" height="278" viewBox="0 0 278 278" fill="none" xmlns="http://www.w3.org/2000/svg">
<g clip-path="url(#clip0)">
<path d="M59.4881 117.299C58.9841 113.062 57.4811 109.128 55.2151 105.743L258.207 37.967L247.552 6.05103C246.003 1.41303 240.986 -1.08997 236.351 0.457034L15.5401 74.182C10.9051 75.729 8.39711 80.745 9.94611 85.383L15.1711 101.03C9.9551 105.873 6.68311 112.782 6.68311 120.445C6.68311 130.369 12.1691 139.031 20.2651 143.572V268.592C20.2651 273.483 24.2321 277.445 29.1191 277.445H261.912C266.797 277.445 270.764 273.482 270.764 268.592V117.299H59.4881ZM188.869 26.724L215.744 17.751L209.277 43.891L182.402 52.864L188.869 26.724ZM122.47 48.893L149.347 39.92L142.88 66.059L116.005 75.033L122.47 48.893ZM33.1811 133.946C25.7391 133.946 19.6831 127.89 19.6831 120.446C19.6831 113.002 25.7391 106.946 33.1811 106.946C40.6251 106.946 46.6811 113.002 46.6811 120.446C46.6811 127.89 40.6251 133.946 33.1811 133.946ZM56.0741 71.062L82.9511 62.089L76.4841 88.229L49.6071 97.203L56.0741 71.062ZM82.4761 147.192H54.1421L68.5541 124.446H96.8881L82.4761 147.192ZM138.554 124.446H166.888L152.476 147.192H124.142L138.554 124.446ZM131.599 234.372V174.372L179.382 204.372L131.599 234.372ZM222.476 147.192H194.142L208.554 124.446H236.888L222.476 147.192Z" fill="#99154E"/>
</g>
<defs>
<clipPath id="clip0">
<rect width="277.446" height="277.446" fill="white"/>
</clipPath>
</defs>
</svg>
