<svg width="512" height="512" viewBox="0 0 512 512" fill="none" xmlns="http://www.w3.org/2000/svg">
<g clip-path="url(#clip0)">
<path d="M456.734 213.332C436.457 213.332 418.977 227.598 414.922 247.465H310.812C308.887 238.082 303.832 229.629 296.477 223.488L325.32 170.668H355.188C359.566 192.129 379.488 206.785 401.281 204.582C423.074 202.383 439.656 184.035 439.656 162.133C439.656 140.231 423.074 121.883 401.281 119.684C379.488 117.481 359.566 132.141 355.188 153.602H328.734V114.516C327.324 113.922 325.84 113.484 324.41 112.926C324.035 112.668 323.637 112.445 323.227 112.254C321.313 111.527 319.344 110.992 317.406 110.344C315.934 109.852 314.477 109.344 312.984 108.895C309.758 107.926 306.484 107.117 303.199 106.367C301.68 106.02 300.18 105.625 298.645 105.324C295.18 104.648 291.676 104.16 288.156 103.723C286.75 103.547 285.367 103.289 283.945 103.152C279.004 102.68 274.023 102.398 269 102.398C233.613 102.375 199.312 114.629 171.953 137.07C171.766 137.223 171.559 137.352 171.371 137.508C168.551 139.832 165.91 142.356 163.266 144.875C162.348 145.746 161.348 146.535 160.453 147.43C158.578 149.309 156.875 151.352 155.094 153.324C153.578 155.004 151.973 156.598 150.527 158.344C149.539 159.539 148.688 160.852 147.734 162.078C145.668 164.742 143.566 167.379 141.676 170.18C141.5 170.434 141.363 170.719 141.188 170.977C135.84 178.957 131.254 187.426 127.492 196.266C127.387 196.512 127.32 196.773 127.215 197.016C111.461 234.762 111.461 277.238 127.215 314.98C127.316 315.227 127.387 315.488 127.492 315.73C131.254 324.574 135.84 333.039 141.184 341.023C141.355 341.277 141.496 341.563 141.672 341.82C143.562 344.617 145.664 347.258 147.73 349.922C148.684 351.148 149.535 352.457 150.523 353.652C151.969 355.402 153.574 356.996 155.09 358.676C156.871 360.648 158.57 362.691 160.449 364.57C161.344 365.465 162.344 366.25 163.262 367.125C165.906 369.645 168.551 372.164 171.367 374.492C171.555 374.648 171.762 374.777 171.949 374.93C199.312 397.371 233.613 409.625 269 409.602C274.023 409.602 279.004 409.32 283.945 408.848C285.367 408.711 286.75 408.453 288.156 408.277C291.676 407.84 295.18 407.352 298.645 406.676C300.18 406.375 301.68 405.981 303.199 405.633C306.484 404.883 309.758 404.074 312.984 403.105C314.473 402.656 315.934 402.148 317.406 401.656C319.34 401.008 321.313 400.473 323.227 399.746C323.637 399.555 324.035 399.328 324.41 399.074C325.84 398.516 327.324 398.082 328.734 397.48V358.398H355.188C359.566 379.859 379.488 394.52 401.281 392.316C423.074 390.117 439.656 371.77 439.656 349.867C439.656 327.965 423.074 309.617 401.281 307.418C379.488 305.215 359.566 319.871 355.188 341.332H325.32L296.477 288.512C303.832 282.371 308.887 273.918 310.812 264.535H414.922C419.41 286.531 440.18 301.285 462.434 298.285C484.684 295.281 500.797 275.547 499.297 253.145C497.793 230.742 479.188 213.34 456.734 213.332V213.332ZM397 136.535C411.137 136.535 422.602 147.996 422.602 162.133C422.602 176.273 411.137 187.734 397 187.734C382.863 187.734 371.398 176.273 371.398 162.133C371.441 148.012 382.879 136.574 397 136.535ZM397 324.266C411.137 324.266 422.602 335.727 422.602 349.867C422.602 364.004 411.137 375.465 397 375.465C382.863 375.465 371.398 364.004 371.398 349.867C371.441 335.746 382.879 324.309 397 324.266V324.266ZM205.172 178.004C181.617 193.356 167.18 219.359 166.602 247.465C166.602 252.18 162.781 256 158.066 256C153.355 256 149.535 252.18 149.535 247.465C150.18 213.375 167.742 181.836 196.383 163.328C199.004 161.758 202.262 161.707 204.934 163.191C207.605 164.676 209.281 167.473 209.328 170.531C209.379 173.586 207.793 176.434 205.172 178.004ZM281.289 278.441C277.535 280.539 273.301 281.629 269 281.602C254.863 281.602 243.398 270.137 243.398 256C243.398 241.863 254.863 230.398 269 230.398C273.301 230.371 277.535 231.461 281.289 233.559C289.496 238.043 294.602 246.648 294.602 256C294.602 265.352 289.496 273.957 281.289 278.441ZM456.734 281.602C442.594 281.602 431.133 270.137 431.133 256C431.133 241.863 442.594 230.398 456.734 230.398C470.871 230.398 482.332 241.863 482.332 256C482.293 270.121 470.855 281.559 456.734 281.602Z" fill="#99154E"/>
<path d="M439.668 409.602C419.391 409.598 401.91 423.867 397.852 443.734V443.738L357.895 443.758L346.883 432.746C346.828 432.687 346.797 432.613 346.738 432.555L346.652 432.469L329.672 415.574C265.711 439.887 193.414 423.652 145.988 374.332C98.5625 325.008 85.1719 252.133 111.973 189.172C138.77 126.215 200.574 85.3438 269 85.332C289.738 85.3008 310.309 89.0898 329.672 96.5117L346.738 79.4453C346.797 79.3867 346.828 79.3125 346.883 79.2539L357.832 68.2656H397.852C402.234 89.7266 422.152 104.387 443.945 102.184C465.738 99.9844 482.324 81.6367 482.324 59.7344C482.324 37.8281 465.738 19.4844 443.945 17.2812C422.152 15.082 402.234 29.7383 397.852 51.1992H357.832C353.328 51.2109 349.016 53 345.824 56.1758L338.582 63.418L338.547 63.4023C332.531 61.207 326.41 59.3281 320.199 57.7695V17.0664C320.172 7.65234 312.547 0.0273438 303.133 0H234.867C225.453 0.0273438 217.828 7.65234 217.801 17.0664V57.7695C199.238 62.4805 181.445 69.8398 164.98 79.6172L136.391 50.9453C133.191 47.6836 128.82 45.8398 124.25 45.8242C119.68 45.8086 115.297 47.6211 112.07 50.8594L63.9453 98.9883C60.6836 102.188 58.8398 106.559 58.8242 111.129C58.8086 115.699 60.6211 120.082 63.8594 123.309L92.6172 151.98C82.8398 168.445 75.4805 186.238 70.7695 204.801H30.0664C20.6523 204.828 13.0273 212.453 13 221.867V290.133C13.0273 299.547 20.6523 307.172 30.0664 307.199H70.7695C75.4805 325.762 82.8398 343.555 92.6172 360.02L63.9453 388.609C60.6836 391.809 58.8398 396.18 58.8242 400.75C58.8086 405.32 60.6211 409.703 63.8594 412.93L111.988 461.055C115.188 464.316 119.559 466.16 124.129 466.176C128.699 466.191 133.082 464.379 136.309 461.141L164.98 432.383C181.445 442.16 199.238 449.52 217.801 454.23V494.934C217.828 504.348 225.453 511.973 234.867 512H303.133C312.547 511.973 320.172 504.348 320.199 494.934V454.23C326.41 452.672 332.531 450.793 338.547 448.598L338.586 448.582L345.816 455.816C349.008 458.996 353.328 460.789 357.832 460.801H397.852C402.344 482.797 423.113 497.555 445.367 494.551C467.617 491.547 483.73 471.812 482.23 449.41C480.727 427.008 462.117 409.605 439.668 409.602V409.602ZM439.668 34.1328C453.805 34.1328 465.266 45.5938 465.266 59.7344C465.266 73.8711 453.805 85.332 439.668 85.332C425.527 85.332 414.066 73.8711 414.066 59.7344C414.109 45.6133 425.547 34.1758 439.668 34.1328V34.1328ZM439.668 477.867C425.527 477.867 414.066 466.406 414.066 452.266C414.066 438.129 425.527 426.668 439.668 426.668C453.805 426.668 465.266 438.129 465.266 452.266C465.227 466.387 453.789 477.824 439.668 477.867V477.867Z" fill="#99154E"/>
</g>
<defs>
<clipPath id="clip0">
<rect width="512" height="512" fill="white"/>
</clipPath>
</defs>
</svg>
