<svg width="366" height="366" viewBox="0 0 366 366" fill="none" xmlns="http://www.w3.org/2000/svg">
<path d="M264.25 253.562L183.074 191.828L103.516 253.52C96.8711 258.629 92.9844 266.539 93 274.918V309H275V275.117C274.949 266.652 270.981 258.691 264.25 253.562Z" fill="#99154E"/>
<path d="M70.5195 0H294.48C295.32 0 296 0.679688 296 1.51953V41.4805C296 42.3203 295.32 43 294.48 43H70.5195C69.6797 43 69 42.3203 69 41.4805V1.51953C69 0.679688 69.6797 0 70.5195 0V0Z" fill="#99154E"/>
<path d="M70.5195 323H294.48C295.32 323 296 323.68 296 324.52V364.48C296 365.32 295.32 366 294.48 366H70.5195C69.6797 366 69 365.32 69 364.48V324.52C69 323.68 69.6797 323 70.5195 323V323Z" fill="#99154E"/>
<path d="M92 88.3047C91.9961 96.543 95.7539 104.332 102.207 109.453L182.98 174.035L263.777 109.453C270.234 104.332 274 96.543 274 88.3047V57H92V88.3047Z" fill="#99154E"/>
</svg>
