<svg width="512" height="512" viewBox="0 0 512 512" fill="none" xmlns="http://www.w3.org/2000/svg">
<path d="M256 101.08C207.755 101.08 168.499 140.336 168.499 188.581C168.499 236.826 207.755 276.082 256 276.082C304.245 276.082 343.501 236.826 343.501 188.581C343.501 140.336 304.245 101.08 256 101.08Z" fill="#99154E"/>
<path d="M236.342 399.841L235.872 399.411L224.723 389.322L198.486 365.584L169.958 368.654L152.5 370.524L148.361 370.974L135.032 372.404L93.0562 461.605L158.06 462.465L200.135 512L247.971 410.36L236.342 399.841Z" fill="#99154E"/>
<path d="M376.968 372.404L363.639 370.974L359.5 370.534L342.042 368.654L313.514 365.584L287.277 389.322L276.128 399.411L275.658 399.841L264.029 410.36L311.865 512L353.94 462.465L418.944 461.605L376.968 372.404Z" fill="#99154E"/>
<path d="M409.245 188.582L435.352 130.308L379.978 98.51L366.849 36.016L303.355 42.835L256 0L208.645 42.836L145.151 36.017L132.022 98.51L76.647 130.307L102.754 188.581L76.647 246.855L132.022 278.652L145.151 341.146L149.991 340.626L167.459 338.746L184.917 336.876L189.597 336.376H189.607L208.645 334.326L222.964 347.275L238.073 360.944L242.783 365.204L249.702 371.463L256.001 377.162L262.3 371.463L269.219 365.204L273.929 360.944L285.678 350.325L285.688 350.315L303.356 334.327L334.213 337.637H334.223L337.363 337.977L344.542 338.747H344.552L362.01 340.627L366.85 341.147L379.979 278.653L435.354 246.856L409.245 188.582ZM256 306.08C191.216 306.08 138.501 253.375 138.501 188.581C138.501 123.797 191.216 71.082 256 71.082C320.784 71.082 373.499 123.797 373.499 188.581C373.499 253.375 320.784 306.08 256 306.08Z" fill="#99154E"/>
</svg>
