<svg width="512" height="512" viewBox="0 0 512 512" fill="none" xmlns="http://www.w3.org/2000/svg">
<path d="M331.294 155.053C340.937 145.711 346.352 133.238 346.352 119.334H316.235C316.235 133.238 321.65 145.711 331.294 155.053Z" fill="#99154E"/>
<path d="M457.958 43.099C423.989 15.3067 379.005 0 331.293 0C283.581 0 238.597 15.3067 204.628 43.099C169.78 71.6112 150.589 109.784 150.589 150.587C150.589 191.39 169.781 229.563 204.629 258.074C238.597 285.867 283.58 301.174 331.293 301.174C371.386 301.174 410.337 290.066 441.863 269.768L511.998 291.483V150.587C511.998 109.784 492.806 71.6112 457.958 43.099V43.099ZM406.587 119.334H376.469C376.469 138.476 369.828 156.215 358.076 170.33L386.03 181.838L374.565 209.687C337.822 194.436 337.241 194.587 331.293 191.559C325.148 194.688 323.535 194.946 288.022 209.687L276.557 181.838L304.511 170.33C292.758 156.215 286.117 138.476 286.117 119.334H256V89.2168H316.235V59.0994H346.352V89.2168H406.587V119.334Z" fill="#99154E"/>
<path d="M185.556 281.384C162.669 262.658 145.404 240.326 134.422 215.783C104.36 222.363 76.7391 235.349 54.0406 253.921C19.1928 282.433 0.00195312 320.606 0.00195312 361.409V502.305L70.1364 480.59C140.349 525.798 241.895 522.468 307.371 468.897C342.219 440.386 361.411 402.212 361.411 361.41C361.411 350.712 360.074 340.158 357.457 329.881C296.92 336.405 233.25 320.405 185.556 281.384V281.384ZM225.883 451.761H195.765V421.644H165.648V451.761H135.53V376.468C135.53 351.556 155.796 331.291 180.706 331.291C205.617 331.291 225.883 351.556 225.883 376.468V451.761Z" fill="#99154E"/>
<path d="M180.706 361.409C172.403 361.409 165.647 368.164 165.647 376.468V391.527H195.765V376.468C195.765 368.164 189.01 361.409 180.706 361.409Z" fill="#99154E"/>
</svg>
