<svg width="75" height="75" fill="none" xmlns="http://www.w3.org/2000/svg"><path d="M67.5 0h-60C3.375 0 0 3.375 0 7.5v60C0 71.625 3.375 75 7.5 75h60c4.125 0 7.5-3.375 7.5-7.5v-60C75 3.375 71.625 0 67.5 0Zm-8.625 27.375c-.375 17.25-11.25 29.25-27.75 30-6.75.375-11.625-1.875-16.125-4.5 4.875.75 11.25-1.125 14.625-4.125-4.875-.375-7.875-3-9.375-7.125 1.5.375 3 0 4.125 0-4.5-1.5-7.5-4.125-7.875-10.125 1.125.75 2.625 1.125 4.125 1.125-3.375-1.875-5.625-9-3-13.5 4.875 5.25 10.875 9.75 20.625 10.5-2.625-10.5 11.625-16.125 17.25-9 2.625-.375 4.5-1.5 6.375-2.25C61.125 21 59.625 22.5 57.75 24c1.875-.375 3.75-.75 5.25-1.5-.375 1.875-2.25 3.375-4.125 4.875Z" fill="#99154E"/></svg>