<svg width="512" height="512" viewBox="0 0 512 512" fill="none" xmlns="http://www.w3.org/2000/svg">
<g clip-path="url(#clip0)">
<path d="M330.035 72.323L363.653 38.7052L412.703 87.7554L379.085 121.373L330.035 72.323Z" fill="#99154E"/>
<path d="M164.477 237.859L308.81 93.5256L357.86 142.576L213.527 286.909L164.477 237.859Z" fill="#99154E"/>
<path d="M191.043 306.818L144.609 260.383L111.471 338.722L112.705 339.954L191.043 306.818Z" fill="#99154E"/>
<path d="M489.443 418.332V369.954H319.378C285.584 369.954 257.975 396.406 256.108 429.733C256.072 429.765 256.035 429.795 256 429.827C255.964 429.795 255.927 429.765 255.892 429.733C254.025 396.406 226.416 369.954 192.622 369.954H22.557V418.332H0V448.332H226C234.271 448.332 241 455.061 241 463.332V473.332H271V463.332C271 455.061 277.729 448.332 286 448.332H512V418.332H489.443Z" fill="#99154E"/>
</g>
<defs>
<clipPath id="clip0">
<rect width="512" height="512" fill="white"/>
</clipPath>
</defs>
</svg>
